<svg width="215" height="65" viewBox="0 0 215 65" fill="none" xmlns="http://www.w3.org/2000/svg">
<g id="Gradial Logo" clip-path="url(#clip0_61_8621)">
<path id="Vector" d="M16.2597 26.6456H24.6243C29.9428 26.6456 34.2532 22.2745 34.2532 16.8848H16.7969C6.71842 16.8848 0.155357 24.1928 0.155357 33.2098C0.155357 42.2268 7.36629 49.5348 16.2597 49.5348C25.1532 49.5348 32.3641 42.2251 32.3641 33.2098C32.3641 32.2347 32.2418 31.258 32.0154 30.3532H22.0906C22.5022 31.2161 22.7335 32.1861 22.7335 33.2098C22.7335 36.8353 19.8346 39.774 16.2581 39.774C12.6815 39.774 9.78261 36.8353 9.78261 33.2098C9.78261 29.5842 12.6815 26.6456 16.2581 26.6456H16.2597Z" fill="white"/>
<path id="Vector_2" d="M52.5937 18.3393C51.0798 19.1937 49.8336 20.3045 48.8503 21.6683V21.6063C48.8503 18.9977 46.7645 16.8834 44.1912 16.8834H39.2494V53.3265H49.318V36.1202C49.318 32.6438 50.1972 30.0804 51.9574 28.4319C53.7176 26.7833 56.0215 25.959 58.8742 25.959C59.2741 25.959 59.6526 25.9707 60.0096 25.9925C60.3649 26.0159 60.7666 26.0494 61.2128 26.093V16.3389C57.8263 16.3389 54.9538 17.0057 52.5937 18.3376V18.3393Z" fill="white"/>
<path id="Vector_3" d="M130.225 3.06445V20.6963C129.397 19.7765 128.465 18.9974 127.419 18.3725C125.146 17.0171 122.495 16.3403 119.466 16.3403C116.079 16.3403 113.028 17.1093 110.311 18.6439C107.592 20.1803 105.442 22.3482 103.862 25.1461C102.28 27.9474 101.49 31.2663 101.49 35.1047C101.49 38.943 102.28 42.1949 103.862 44.9945C105.444 47.7941 107.592 49.9738 110.311 51.5302C113.028 53.0883 116.079 53.8674 119.466 53.8674C123.505 53.8674 125.435 53.3095 127.686 51.9541C128.868 51.242 130.131 49.9486 130.894 48.543C130.894 50.8735 132.739 53.3262 135.613 53.3262H140.194V3.06445H130.225ZM129.154 40.4911C128.304 42.0056 127.171 43.1667 125.751 43.9792C124.331 44.7918 122.75 45.1989 121.009 45.1989C119.269 45.1989 117.619 44.7918 116.2 43.9792C114.778 43.1667 113.646 42.0039 112.798 40.4911C111.95 38.9798 111.526 37.1838 111.526 35.1047C111.526 33.0255 111.95 31.1759 112.798 29.6848C113.645 28.1937 114.778 27.0427 116.2 26.2318C117.619 25.4175 119.224 25.0121 121.009 25.0121C122.794 25.0121 124.331 25.4175 125.751 26.2318C127.171 27.0443 128.304 28.1953 129.154 29.6848C130 31.1759 130.425 32.9819 130.425 35.1047C130.425 37.2274 130 38.9782 129.154 40.4911Z" fill="white"/>
<path id="Vector_4" d="M148.736 47.7053V16.8848H158.705V53.3279H154.281C151.218 53.3279 148.736 50.8115 148.736 47.707V47.7053Z" fill="white"/>
<path id="Vector_5" d="M205.043 47.7053V3.06445H215.013V53.3262H210.588C207.526 53.3262 205.043 50.8098 205.043 47.7053Z" fill="white"/>
<path id="Vector_6" d="M91.8977 19.2335C88.8682 16.6149 85.5446 15.04 79.7682 15.04C73.9918 15.04 68.5014 16.7942 66.8933 17.5783V26.6338C68.632 25.7324 74.5769 23.7152 78.5138 23.7152C81.6854 23.7152 83.1299 24.3887 84.4356 25.6017C85.7925 26.8666 86.4734 28.6275 86.4734 30.8859V30.9127H78.1882C74.5339 30.9127 71.5722 31.3986 69.2997 32.367C67.0288 33.3353 65.3678 34.6689 64.3216 36.3695C63.2754 38.07 62.7515 40.0537 62.7515 42.3221C62.7515 44.5906 63.2854 46.4553 64.3563 48.2028C65.4257 49.9519 66.9611 51.3341 68.9675 52.3494C70.9723 53.3646 73.377 53.8723 76.1834 53.8723C79.3467 53.8723 81.93 53.234 83.9348 51.959C85.2933 51.0945 86.3577 49.9535 87.1428 48.5479C87.1428 51.19 89.255 53.3311 91.8613 53.3311H96.4428V31.4974C96.4428 25.9418 94.9288 21.8572 91.8994 19.2369L91.8977 19.2335ZM83.6505 44.8939C82.3085 45.8941 80.3417 46.4285 78.5518 46.4285C76.6676 46.4285 75.1868 46.0147 74.1092 45.1871C73.0283 44.3611 72.4895 43.2402 72.4895 41.8212C72.4895 40.5462 72.9605 39.484 73.9009 38.6329C74.8414 37.7818 76.5751 37.3579 79.1021 37.3579H86.4734C86.4734 41.1912 85.2471 43.7027 83.6505 44.8939Z" fill="white"/>
<path id="Vector_7" d="M193.555 19.2335C190.525 16.6149 187.202 15.04 181.425 15.04C175.649 15.04 170.159 16.7942 168.55 17.5783V26.6338C170.289 25.7324 176.234 23.7152 180.171 23.7152C183.343 23.7152 184.787 24.3887 186.093 25.6017C187.45 26.8666 188.131 28.6275 188.131 30.8859V30.9127H179.845C176.191 30.9127 173.229 31.3986 170.957 32.367C168.686 33.3353 167.025 34.6689 165.979 36.3695C164.933 38.07 164.409 40.0537 164.409 42.3221C164.409 44.5906 164.943 46.4553 166.014 48.2028C167.083 49.9519 168.618 51.3341 170.625 52.3494C172.629 53.3646 175.034 53.8723 177.841 53.8723C181.004 53.8723 183.587 53.234 185.592 51.959C186.951 51.0945 188.015 49.9535 188.8 48.5479C188.8 51.19 190.912 53.3311 193.519 53.3311H198.1V31.4974C198.1 25.9418 196.586 21.8572 193.557 19.2369L193.555 19.2335ZM185.308 44.8939C183.966 45.8941 181.999 46.4285 180.209 46.4285C178.325 46.4285 176.844 46.0147 175.766 45.1871C174.685 44.3611 174.147 43.2402 174.147 41.8212C174.147 40.5462 174.618 39.484 175.558 38.6329C176.499 37.7818 178.232 37.3579 180.759 37.3579H188.131C188.131 41.1912 186.904 43.7027 185.308 44.8939Z" fill="white"/>
<path id="Vector_8" d="M153.72 12.3223C157.037 12.3223 159.726 9.5964 159.726 6.23388C159.726 2.87137 157.037 0.145508 153.72 0.145508C150.403 0.145508 147.714 2.87137 147.714 6.23388C147.714 9.5964 150.403 12.3223 153.72 12.3223Z" fill="white"/>
<path id="Vector_9" d="M23.1633 54.5185H11.8419C10.0272 54.5185 8.55627 53.0274 8.55627 51.1878V47.5488C4.75826 47.5488 1.68084 50.6701 1.67919 54.5185C1.67919 59.7792 5.88709 64.0447 11.0784 64.0447H32.5624C32.5624 58.7823 28.3545 54.5168 23.1633 54.5168V54.5185Z" fill="white"/>
</g>
<defs>
<clipPath id="clip0_61_8621">
<rect width="214.857" height="64" fill="white" transform="translate(0 0.046875)"/>
</clipPath>
</defs>
</svg>
